<mxfile host="app.diagrams.net" modified="2023-05-31T07:13:56.932Z" agent="Mozilla/5.0 (Windows NT 10.0; Win64; x64) AppleWebKit/537.36 (KHTML, like Gecko) Chrome/113.0.0.0 Safari/537.36" etag="bQYi50oTyddYPkE1htg2" version="21.3.6" type="device">
  <diagram name="Page-1" id="tVBLD5o6fiOLdbdMva9e">
    <mxGraphModel dx="2819" dy="1989" grid="1" gridSize="10" guides="1" tooltips="1" connect="1" arrows="1" fold="1" page="1" pageScale="1" pageWidth="850" pageHeight="1100" math="0" shadow="0">
      <root>
        <mxCell id="0" />
        <mxCell id="1" parent="0" />
        <mxCell id="bLzR6sThlZb8IH4eQjwO-2" style="edgeStyle=orthogonalEdgeStyle;rounded=0;orthogonalLoop=1;jettySize=auto;html=1;entryX=0;entryY=0.5;entryDx=0;entryDy=0;" parent="1" source="bLzR6sThlZb8IH4eQjwO-3" target="bLzR6sThlZb8IH4eQjwO-6" edge="1">
          <mxGeometry relative="1" as="geometry" />
        </mxCell>
        <mxCell id="bLzR6sThlZb8IH4eQjwO-3" value="Start&lt;br&gt;(Age function)" style="rounded=1;whiteSpace=wrap;html=1;fillColor=#fff2cc;strokeColor=#d6b656;" parent="1" vertex="1">
          <mxGeometry x="20" y="136.25" width="120" height="37.5" as="geometry" />
        </mxCell>
        <mxCell id="bLzR6sThlZb8IH4eQjwO-4" style="edgeStyle=orthogonalEdgeStyle;rounded=0;orthogonalLoop=1;jettySize=auto;html=1;" parent="1" source="bLzR6sThlZb8IH4eQjwO-6" target="bLzR6sThlZb8IH4eQjwO-10" edge="1">
          <mxGeometry relative="1" as="geometry" />
        </mxCell>
        <mxCell id="bLzR6sThlZb8IH4eQjwO-5" value="True" style="edgeLabel;html=1;align=center;verticalAlign=middle;resizable=0;points=[];" parent="bLzR6sThlZb8IH4eQjwO-4" vertex="1" connectable="0">
          <mxGeometry x="-0.2667" y="3" relative="1" as="geometry">
            <mxPoint as="offset" />
          </mxGeometry>
        </mxCell>
        <mxCell id="bLzR6sThlZb8IH4eQjwO-6" value="Ask user age." style="shape=parallelogram;perimeter=parallelogramPerimeter;whiteSpace=wrap;html=1;fixedSize=1;fillColor=#dae8fc;strokeColor=#6c8ebf;" parent="1" vertex="1">
          <mxGeometry x="190" y="125" width="120" height="60" as="geometry" />
        </mxCell>
        <mxCell id="bLzR6sThlZb8IH4eQjwO-7" value="False" style="edgeStyle=orthogonalEdgeStyle;rounded=0;orthogonalLoop=1;jettySize=auto;html=1;entryX=0.412;entryY=1.022;entryDx=0;entryDy=0;entryPerimeter=0;" parent="1" source="bLzR6sThlZb8IH4eQjwO-10" target="bLzR6sThlZb8IH4eQjwO-6" edge="1">
          <mxGeometry relative="1" as="geometry">
            <Array as="points">
              <mxPoint x="429" y="274.86" />
              <mxPoint x="239" y="274.86" />
            </Array>
          </mxGeometry>
        </mxCell>
        <mxCell id="bLzR6sThlZb8IH4eQjwO-8" style="edgeStyle=orthogonalEdgeStyle;rounded=0;orthogonalLoop=1;jettySize=auto;html=1;" parent="1" source="bLzR6sThlZb8IH4eQjwO-10" target="bLzR6sThlZb8IH4eQjwO-50" edge="1">
          <mxGeometry relative="1" as="geometry" />
        </mxCell>
        <mxCell id="bLzR6sThlZb8IH4eQjwO-9" value="True" style="edgeLabel;html=1;align=center;verticalAlign=middle;resizable=0;points=[];" parent="bLzR6sThlZb8IH4eQjwO-8" vertex="1" connectable="0">
          <mxGeometry x="-0.3043" y="-1" relative="1" as="geometry">
            <mxPoint as="offset" />
          </mxGeometry>
        </mxCell>
        <mxCell id="bLzR6sThlZb8IH4eQjwO-10" value="If age&lt;br&gt;&amp;nbsp;&amp;gt;=14 and &amp;lt;=18" style="rhombus;whiteSpace=wrap;html=1;fillColor=#f8cecc;strokeColor=#b85450;" parent="1" vertex="1">
          <mxGeometry x="374" y="110" width="110" height="90" as="geometry" />
        </mxCell>
        <mxCell id="bLzR6sThlZb8IH4eQjwO-11" style="edgeStyle=orthogonalEdgeStyle;rounded=0;orthogonalLoop=1;jettySize=auto;html=1;entryX=0;entryY=0.5;entryDx=0;entryDy=0;" parent="1" source="bLzR6sThlZb8IH4eQjwO-13" target="bLzR6sThlZb8IH4eQjwO-27" edge="1">
          <mxGeometry relative="1" as="geometry" />
        </mxCell>
        <mxCell id="bLzR6sThlZb8IH4eQjwO-12" value="True" style="edgeLabel;html=1;align=center;verticalAlign=middle;resizable=0;points=[];" parent="bLzR6sThlZb8IH4eQjwO-11" vertex="1" connectable="0">
          <mxGeometry x="-0.0849" y="-2" relative="1" as="geometry">
            <mxPoint as="offset" />
          </mxGeometry>
        </mxCell>
        <mxCell id="bLzR6sThlZb8IH4eQjwO-13" value="User input:&lt;br&gt;1. Add account&lt;br&gt;2.Login&lt;br&gt;3.Reset" style="shape=parallelogram;perimeter=parallelogramPerimeter;whiteSpace=wrap;html=1;fixedSize=1;fillColor=#dae8fc;strokeColor=#6c8ebf;" parent="1" vertex="1">
          <mxGeometry x="65.97" y="371.53" width="120" height="60" as="geometry" />
        </mxCell>
        <mxCell id="bLzR6sThlZb8IH4eQjwO-14" style="edgeStyle=orthogonalEdgeStyle;rounded=0;orthogonalLoop=1;jettySize=auto;html=1;" parent="1" source="bLzR6sThlZb8IH4eQjwO-18" target="bLzR6sThlZb8IH4eQjwO-23" edge="1">
          <mxGeometry relative="1" as="geometry" />
        </mxCell>
        <mxCell id="bLzR6sThlZb8IH4eQjwO-15" value="False" style="edgeLabel;html=1;align=center;verticalAlign=middle;resizable=0;points=[];" parent="bLzR6sThlZb8IH4eQjwO-14" vertex="1" connectable="0">
          <mxGeometry x="-0.2132" relative="1" as="geometry">
            <mxPoint as="offset" />
          </mxGeometry>
        </mxCell>
        <mxCell id="bLzR6sThlZb8IH4eQjwO-16" style="edgeStyle=orthogonalEdgeStyle;rounded=0;orthogonalLoop=1;jettySize=auto;html=1;entryX=0.5;entryY=0;entryDx=0;entryDy=0;" parent="1" source="bLzR6sThlZb8IH4eQjwO-18" target="bLzR6sThlZb8IH4eQjwO-33" edge="1">
          <mxGeometry relative="1" as="geometry" />
        </mxCell>
        <mxCell id="bLzR6sThlZb8IH4eQjwO-17" value="True" style="edgeLabel;html=1;align=center;verticalAlign=middle;resizable=0;points=[];" parent="bLzR6sThlZb8IH4eQjwO-16" vertex="1" connectable="0">
          <mxGeometry x="-0.7874" y="-2" relative="1" as="geometry">
            <mxPoint as="offset" />
          </mxGeometry>
        </mxCell>
        <mxCell id="bLzR6sThlZb8IH4eQjwO-18" value="If user input =1" style="rhombus;whiteSpace=wrap;html=1;fillColor=#f8cecc;strokeColor=#b85450;" parent="1" vertex="1">
          <mxGeometry x="65.97" y="476.53" width="110" height="90" as="geometry" />
        </mxCell>
        <mxCell id="bLzR6sThlZb8IH4eQjwO-19" style="edgeStyle=orthogonalEdgeStyle;rounded=0;orthogonalLoop=1;jettySize=auto;html=1;" parent="1" source="bLzR6sThlZb8IH4eQjwO-23" target="bLzR6sThlZb8IH4eQjwO-24" edge="1">
          <mxGeometry relative="1" as="geometry" />
        </mxCell>
        <mxCell id="bLzR6sThlZb8IH4eQjwO-20" value="False" style="edgeLabel;html=1;align=center;verticalAlign=middle;resizable=0;points=[];" parent="bLzR6sThlZb8IH4eQjwO-19" vertex="1" connectable="0">
          <mxGeometry x="-0.2632" y="2" relative="1" as="geometry">
            <mxPoint as="offset" />
          </mxGeometry>
        </mxCell>
        <mxCell id="bLzR6sThlZb8IH4eQjwO-21" style="edgeStyle=orthogonalEdgeStyle;rounded=0;orthogonalLoop=1;jettySize=auto;html=1;" parent="1" source="bLzR6sThlZb8IH4eQjwO-23" target="bLzR6sThlZb8IH4eQjwO-41" edge="1">
          <mxGeometry relative="1" as="geometry" />
        </mxCell>
        <mxCell id="bLzR6sThlZb8IH4eQjwO-22" value="True" style="edgeLabel;html=1;align=center;verticalAlign=middle;resizable=0;points=[];" parent="bLzR6sThlZb8IH4eQjwO-21" vertex="1" connectable="0">
          <mxGeometry x="-0.2071" y="3" relative="1" as="geometry">
            <mxPoint as="offset" />
          </mxGeometry>
        </mxCell>
        <mxCell id="bLzR6sThlZb8IH4eQjwO-23" value="elif user input =2" style="rhombus;whiteSpace=wrap;html=1;fillColor=#f8cecc;strokeColor=#b85450;" parent="1" vertex="1">
          <mxGeometry x="227.97" y="476.53" width="110" height="90" as="geometry" />
        </mxCell>
        <mxCell id="bLzR6sThlZb8IH4eQjwO-140" value="True" style="edgeStyle=orthogonalEdgeStyle;rounded=0;orthogonalLoop=1;jettySize=auto;html=1;" parent="1" source="bLzR6sThlZb8IH4eQjwO-24" target="bLzR6sThlZb8IH4eQjwO-46" edge="1">
          <mxGeometry relative="1" as="geometry" />
        </mxCell>
        <mxCell id="bLzR6sThlZb8IH4eQjwO-24" value="elif user input =3" style="rhombus;whiteSpace=wrap;html=1;fillColor=#f8cecc;strokeColor=#b85450;" parent="1" vertex="1">
          <mxGeometry x="392.97" y="476.53" width="110" height="90" as="geometry" />
        </mxCell>
        <mxCell id="bLzR6sThlZb8IH4eQjwO-25" style="edgeStyle=orthogonalEdgeStyle;rounded=0;orthogonalLoop=1;jettySize=auto;html=1;" parent="1" source="bLzR6sThlZb8IH4eQjwO-27" target="bLzR6sThlZb8IH4eQjwO-30" edge="1">
          <mxGeometry relative="1" as="geometry" />
        </mxCell>
        <mxCell id="bLzR6sThlZb8IH4eQjwO-26" value="True" style="edgeLabel;html=1;align=center;verticalAlign=middle;resizable=0;points=[];" parent="bLzR6sThlZb8IH4eQjwO-25" vertex="1" connectable="0">
          <mxGeometry x="-0.3107" relative="1" as="geometry">
            <mxPoint as="offset" />
          </mxGeometry>
        </mxCell>
        <mxCell id="bLzR6sThlZb8IH4eQjwO-27" value="User input:&lt;br&gt;Enter account name:" style="shape=parallelogram;perimeter=parallelogramPerimeter;whiteSpace=wrap;html=1;fixedSize=1;fillColor=#dae8fc;strokeColor=#6c8ebf;" parent="1" vertex="1">
          <mxGeometry x="227.97" y="371.53" width="145" height="60" as="geometry" />
        </mxCell>
        <mxCell id="bLzR6sThlZb8IH4eQjwO-28" style="edgeStyle=orthogonalEdgeStyle;rounded=0;orthogonalLoop=1;jettySize=auto;html=1;entryX=0;entryY=0.5;entryDx=0;entryDy=0;" parent="1" source="bLzR6sThlZb8IH4eQjwO-30" target="bLzR6sThlZb8IH4eQjwO-18" edge="1">
          <mxGeometry relative="1" as="geometry">
            <mxPoint x="605.97" y="486.53" as="targetPoint" />
            <Array as="points">
              <mxPoint x="487.97" y="456.53" />
              <mxPoint x="45.97" y="456.53" />
              <mxPoint x="45.97" y="521.53" />
            </Array>
          </mxGeometry>
        </mxCell>
        <mxCell id="bLzR6sThlZb8IH4eQjwO-29" value="True" style="edgeLabel;html=1;align=center;verticalAlign=middle;resizable=0;points=[];" parent="bLzR6sThlZb8IH4eQjwO-28" vertex="1" connectable="0">
          <mxGeometry x="0.0203" y="3" relative="1" as="geometry">
            <mxPoint as="offset" />
          </mxGeometry>
        </mxCell>
        <mxCell id="bLzR6sThlZb8IH4eQjwO-30" value="User input:&lt;br&gt;Enter password:" style="shape=parallelogram;perimeter=parallelogramPerimeter;whiteSpace=wrap;html=1;fixedSize=1;fillColor=#dae8fc;strokeColor=#6c8ebf;" parent="1" vertex="1">
          <mxGeometry x="410.97" y="371.53" width="155" height="60" as="geometry" />
        </mxCell>
        <mxCell id="bLzR6sThlZb8IH4eQjwO-31" style="edgeStyle=orthogonalEdgeStyle;rounded=0;orthogonalLoop=1;jettySize=auto;html=1;" parent="1" source="bLzR6sThlZb8IH4eQjwO-33" target="bLzR6sThlZb8IH4eQjwO-36" edge="1">
          <mxGeometry relative="1" as="geometry" />
        </mxCell>
        <mxCell id="bLzR6sThlZb8IH4eQjwO-32" value="True" style="edgeLabel;html=1;align=center;verticalAlign=middle;resizable=0;points=[];" parent="bLzR6sThlZb8IH4eQjwO-31" vertex="1" connectable="0">
          <mxGeometry x="0.2021" y="2" relative="1" as="geometry">
            <mxPoint as="offset" />
          </mxGeometry>
        </mxCell>
        <mxCell id="bLzR6sThlZb8IH4eQjwO-33" value="Write in txt:&lt;br&gt;account name and passowrd" style="rounded=0;whiteSpace=wrap;html=1;fillColor=#d5e8d4;strokeColor=#82b366;" parent="1" vertex="1">
          <mxGeometry x="60.97" y="596.53" width="120" height="60" as="geometry" />
        </mxCell>
        <mxCell id="bLzR6sThlZb8IH4eQjwO-34" style="edgeStyle=orthogonalEdgeStyle;rounded=0;orthogonalLoop=1;jettySize=auto;html=1;entryX=0.424;entryY=0.968;entryDx=0;entryDy=0;entryPerimeter=0;" parent="1" source="bLzR6sThlZb8IH4eQjwO-36" target="bLzR6sThlZb8IH4eQjwO-13" edge="1">
          <mxGeometry relative="1" as="geometry">
            <mxPoint x="115.97" y="436.53" as="targetPoint" />
            <Array as="points">
              <mxPoint x="35.97" y="716.53" />
              <mxPoint x="35.97" y="446.53" />
              <mxPoint x="116.97" y="446.53" />
            </Array>
          </mxGeometry>
        </mxCell>
        <mxCell id="bLzR6sThlZb8IH4eQjwO-35" value="True" style="edgeLabel;html=1;align=center;verticalAlign=middle;resizable=0;points=[];" parent="bLzR6sThlZb8IH4eQjwO-34" vertex="1" connectable="0">
          <mxGeometry x="-0.0571" y="2" relative="1" as="geometry">
            <mxPoint as="offset" />
          </mxGeometry>
        </mxCell>
        <mxCell id="bLzR6sThlZb8IH4eQjwO-36" value="Print: Account&amp;nbsp;&lt;br&gt;passoword has been&lt;br&gt;added" style="shape=parallelogram;perimeter=parallelogramPerimeter;whiteSpace=wrap;html=1;fixedSize=1;fillColor=#1ba1e2;strokeColor=#006EAF;fontColor=#ffffff;" parent="1" vertex="1">
          <mxGeometry x="40.97" y="686.53" width="160" height="60" as="geometry" />
        </mxCell>
        <mxCell id="bLzR6sThlZb8IH4eQjwO-37" style="edgeStyle=orthogonalEdgeStyle;rounded=0;orthogonalLoop=1;jettySize=auto;html=1;entryX=0.5;entryY=0;entryDx=0;entryDy=0;" parent="1" source="bLzR6sThlZb8IH4eQjwO-41" target="bLzR6sThlZb8IH4eQjwO-43" edge="1">
          <mxGeometry relative="1" as="geometry" />
        </mxCell>
        <mxCell id="bLzR6sThlZb8IH4eQjwO-38" value="True" style="edgeLabel;html=1;align=center;verticalAlign=middle;resizable=0;points=[];" parent="bLzR6sThlZb8IH4eQjwO-37" vertex="1" connectable="0">
          <mxGeometry x="-0.4501" y="1" relative="1" as="geometry">
            <mxPoint as="offset" />
          </mxGeometry>
        </mxCell>
        <mxCell id="bLzR6sThlZb8IH4eQjwO-39" style="edgeStyle=orthogonalEdgeStyle;rounded=0;orthogonalLoop=1;jettySize=auto;html=1;entryX=0.5;entryY=0;entryDx=0;entryDy=0;" parent="1" source="bLzR6sThlZb8IH4eQjwO-41" target="bLzR6sThlZb8IH4eQjwO-13" edge="1">
          <mxGeometry relative="1" as="geometry">
            <Array as="points">
              <mxPoint x="625.97" y="686.53" />
              <mxPoint x="625.97" y="351.53" />
              <mxPoint x="125.97" y="351.53" />
            </Array>
          </mxGeometry>
        </mxCell>
        <mxCell id="bLzR6sThlZb8IH4eQjwO-40" value="False" style="edgeLabel;html=1;align=center;verticalAlign=middle;resizable=0;points=[];" parent="bLzR6sThlZb8IH4eQjwO-39" vertex="1" connectable="0">
          <mxGeometry x="-0.1378" y="1" relative="1" as="geometry">
            <mxPoint as="offset" />
          </mxGeometry>
        </mxCell>
        <mxCell id="bLzR6sThlZb8IH4eQjwO-41" value="If user account name and password in text file&amp;nbsp;" style="rhombus;whiteSpace=wrap;html=1;fillColor=#f8cecc;strokeColor=#b85450;" parent="1" vertex="1">
          <mxGeometry x="227.97" y="616.53" width="108" height="95" as="geometry" />
        </mxCell>
        <mxCell id="fVE2EbDUCt8qXGBvNgdk-9" style="edgeStyle=orthogonalEdgeStyle;rounded=0;orthogonalLoop=1;jettySize=auto;html=1;" parent="1" source="bLzR6sThlZb8IH4eQjwO-43" target="bLzR6sThlZb8IH4eQjwO-47" edge="1">
          <mxGeometry relative="1" as="geometry" />
        </mxCell>
        <mxCell id="bLzR6sThlZb8IH4eQjwO-43" value="Run&amp;nbsp;&lt;br&gt;menu function" style="rounded=0;whiteSpace=wrap;html=1;fillColor=#d5e8d4;strokeColor=#82b366;" parent="1" vertex="1">
          <mxGeometry x="222.97" y="756.53" width="120" height="60" as="geometry" />
        </mxCell>
        <mxCell id="bLzR6sThlZb8IH4eQjwO-44" style="edgeStyle=orthogonalEdgeStyle;rounded=0;orthogonalLoop=1;jettySize=auto;html=1;entryX=0.5;entryY=0;entryDx=0;entryDy=0;" parent="1" source="bLzR6sThlZb8IH4eQjwO-46" target="bLzR6sThlZb8IH4eQjwO-13" edge="1">
          <mxGeometry relative="1" as="geometry">
            <Array as="points">
              <mxPoint x="585.97" y="651.53" />
              <mxPoint x="585.97" y="351.53" />
              <mxPoint x="125.97" y="351.53" />
            </Array>
          </mxGeometry>
        </mxCell>
        <mxCell id="bLzR6sThlZb8IH4eQjwO-45" value="False" style="edgeLabel;html=1;align=center;verticalAlign=middle;resizable=0;points=[];" parent="bLzR6sThlZb8IH4eQjwO-44" vertex="1" connectable="0">
          <mxGeometry x="-0.5614" y="2" relative="1" as="geometry">
            <mxPoint as="offset" />
          </mxGeometry>
        </mxCell>
        <mxCell id="bLzR6sThlZb8IH4eQjwO-142" value="True" style="edgeStyle=orthogonalEdgeStyle;rounded=0;orthogonalLoop=1;jettySize=auto;html=1;" parent="1" source="bLzR6sThlZb8IH4eQjwO-46" target="bLzR6sThlZb8IH4eQjwO-141" edge="1">
          <mxGeometry relative="1" as="geometry" />
        </mxCell>
        <mxCell id="bLzR6sThlZb8IH4eQjwO-46" value="If user account name and password in text file&amp;nbsp;" style="rhombus;whiteSpace=wrap;html=1;fillColor=#f8cecc;strokeColor=#b85450;" parent="1" vertex="1">
          <mxGeometry x="393.97" y="602.67" width="108" height="95" as="geometry" />
        </mxCell>
        <mxCell id="bLzR6sThlZb8IH4eQjwO-47" value="End" style="rounded=1;whiteSpace=wrap;html=1;fillColor=#fff2cc;strokeColor=#d6b656;" parent="1" vertex="1">
          <mxGeometry x="222.97" y="861.53" width="120" height="25" as="geometry" />
        </mxCell>
        <mxCell id="bLzR6sThlZb8IH4eQjwO-48" value="end" style="rounded=1;whiteSpace=wrap;html=1;fillColor=#fff2cc;strokeColor=#d6b656;" parent="1" vertex="1">
          <mxGeometry x="530" y="240" width="120" height="37.5" as="geometry" />
        </mxCell>
        <mxCell id="bLzR6sThlZb8IH4eQjwO-49" value="True" style="edgeStyle=orthogonalEdgeStyle;rounded=0;orthogonalLoop=1;jettySize=auto;html=1;entryX=0.5;entryY=0;entryDx=0;entryDy=0;" parent="1" source="bLzR6sThlZb8IH4eQjwO-50" target="bLzR6sThlZb8IH4eQjwO-48" edge="1">
          <mxGeometry relative="1" as="geometry" />
        </mxCell>
        <mxCell id="bLzR6sThlZb8IH4eQjwO-50" value="Open menu login function" style="rounded=0;whiteSpace=wrap;html=1;fillColor=#d5e8d4;strokeColor=#82b366;" parent="1" vertex="1">
          <mxGeometry x="530" y="125" width="120" height="60" as="geometry" />
        </mxCell>
        <mxCell id="bLzR6sThlZb8IH4eQjwO-51" style="edgeStyle=orthogonalEdgeStyle;rounded=0;orthogonalLoop=1;jettySize=auto;html=1;" parent="1" source="bLzR6sThlZb8IH4eQjwO-52" target="bLzR6sThlZb8IH4eQjwO-56" edge="1">
          <mxGeometry relative="1" as="geometry" />
        </mxCell>
        <mxCell id="bLzR6sThlZb8IH4eQjwO-52" value="User input: &lt;br&gt;What would you like to order. (00) to quit" style="shape=parallelogram;perimeter=parallelogramPerimeter;whiteSpace=wrap;html=1;fixedSize=1;fillColor=#dae8fc;strokeColor=#6c8ebf;" parent="1" vertex="1">
          <mxGeometry x="943" y="460.2" width="140" height="60" as="geometry" />
        </mxCell>
        <mxCell id="bLzR6sThlZb8IH4eQjwO-53" style="edgeStyle=orthogonalEdgeStyle;rounded=0;orthogonalLoop=1;jettySize=auto;html=1;" parent="1" source="bLzR6sThlZb8IH4eQjwO-56" target="bLzR6sThlZb8IH4eQjwO-61" edge="1">
          <mxGeometry relative="1" as="geometry" />
        </mxCell>
        <mxCell id="bLzR6sThlZb8IH4eQjwO-54" value="False" style="edgeLabel;html=1;align=center;verticalAlign=middle;resizable=0;points=[];" parent="bLzR6sThlZb8IH4eQjwO-53" vertex="1" connectable="0">
          <mxGeometry x="-0.5189" y="-1" relative="1" as="geometry">
            <mxPoint as="offset" />
          </mxGeometry>
        </mxCell>
        <mxCell id="bLzR6sThlZb8IH4eQjwO-55" style="edgeStyle=orthogonalEdgeStyle;rounded=0;orthogonalLoop=1;jettySize=auto;html=1;entryX=0.5;entryY=0;entryDx=0;entryDy=0;" parent="1" source="bLzR6sThlZb8IH4eQjwO-56" target="bLzR6sThlZb8IH4eQjwO-71" edge="1">
          <mxGeometry relative="1" as="geometry" />
        </mxCell>
        <mxCell id="fVE2EbDUCt8qXGBvNgdk-15" value="True" style="edgeLabel;html=1;align=center;verticalAlign=middle;resizable=0;points=[];" parent="bLzR6sThlZb8IH4eQjwO-55" vertex="1" connectable="0">
          <mxGeometry x="-0.0687" y="-3" relative="1" as="geometry">
            <mxPoint as="offset" />
          </mxGeometry>
        </mxCell>
        <mxCell id="bLzR6sThlZb8IH4eQjwO-56" value="&lt;br&gt;If user input is in dictionary&lt;br&gt;" style="rhombus;whiteSpace=wrap;html=1;fillColor=#f8cecc;strokeColor=#b85450;" parent="1" vertex="1">
          <mxGeometry x="1110.99" y="445.2" width="120" height="90" as="geometry" />
        </mxCell>
        <mxCell id="bLzR6sThlZb8IH4eQjwO-59" style="edgeStyle=orthogonalEdgeStyle;rounded=0;orthogonalLoop=1;jettySize=auto;html=1;entryX=0.5;entryY=0;entryDx=0;entryDy=0;exitX=1;exitY=0.5;exitDx=0;exitDy=0;" parent="1" source="bLzR6sThlZb8IH4eQjwO-61" target="bLzR6sThlZb8IH4eQjwO-73" edge="1">
          <mxGeometry relative="1" as="geometry">
            <mxPoint x="1442.99" y="490.1999999999999" as="targetPoint" />
            <Array as="points">
              <mxPoint x="1442.99" y="490.06" />
            </Array>
          </mxGeometry>
        </mxCell>
        <mxCell id="bLzR6sThlZb8IH4eQjwO-60" value="True" style="edgeLabel;html=1;align=center;verticalAlign=middle;resizable=0;points=[];" parent="bLzR6sThlZb8IH4eQjwO-59" vertex="1" connectable="0">
          <mxGeometry x="0.4049" y="-3" relative="1" as="geometry">
            <mxPoint as="offset" />
          </mxGeometry>
        </mxCell>
        <mxCell id="bLzR6sThlZb8IH4eQjwO-136" style="edgeStyle=orthogonalEdgeStyle;rounded=0;orthogonalLoop=1;jettySize=auto;html=1;entryX=0.5;entryY=0;entryDx=0;entryDy=0;" parent="1" source="bLzR6sThlZb8IH4eQjwO-61" target="bLzR6sThlZb8IH4eQjwO-52" edge="1">
          <mxGeometry relative="1" as="geometry">
            <mxPoint x="1350.99" y="414.06" as="targetPoint" />
            <Array as="points">
              <mxPoint x="1350.99" y="440.06" />
              <mxPoint x="1012.99" y="440.06" />
            </Array>
          </mxGeometry>
        </mxCell>
        <mxCell id="bLzR6sThlZb8IH4eQjwO-138" value="False" style="edgeLabel;html=1;align=center;verticalAlign=middle;resizable=0;points=[];" parent="bLzR6sThlZb8IH4eQjwO-136" vertex="1" connectable="0">
          <mxGeometry x="-0.1934" y="2" relative="1" as="geometry">
            <mxPoint as="offset" />
          </mxGeometry>
        </mxCell>
        <mxCell id="bLzR6sThlZb8IH4eQjwO-61" value="If = 00" style="rhombus;whiteSpace=wrap;html=1;fillColor=#f8cecc;strokeColor=#b85450;" parent="1" vertex="1">
          <mxGeometry x="1295.99" y="445.2" width="110" height="90" as="geometry" />
        </mxCell>
        <mxCell id="bLzR6sThlZb8IH4eQjwO-62" style="edgeStyle=orthogonalEdgeStyle;rounded=0;orthogonalLoop=1;jettySize=auto;html=1;" parent="1" source="bLzR6sThlZb8IH4eQjwO-63" target="bLzR6sThlZb8IH4eQjwO-52" edge="1">
          <mxGeometry relative="1" as="geometry" />
        </mxCell>
        <mxCell id="bLzR6sThlZb8IH4eQjwO-63" value="Start&lt;br&gt;(math function)" style="rounded=1;whiteSpace=wrap;html=1;fillColor=#fff2cc;strokeColor=#d6b656;" parent="1" vertex="1">
          <mxGeometry x="792.99" y="470.12999999999994" width="120" height="40.14" as="geometry" />
        </mxCell>
        <mxCell id="bLzR6sThlZb8IH4eQjwO-64" value="END" style="rounded=1;whiteSpace=wrap;html=1;fillColor=#fff2cc;strokeColor=#d6b656;" parent="1" vertex="1">
          <mxGeometry x="1382.99" y="659.06" width="120" height="27.72" as="geometry" />
        </mxCell>
        <mxCell id="fVE2EbDUCt8qXGBvNgdk-21" style="edgeStyle=orthogonalEdgeStyle;rounded=0;orthogonalLoop=1;jettySize=auto;html=1;entryX=0.431;entryY=1.027;entryDx=0;entryDy=0;entryPerimeter=0;" parent="1" source="bLzR6sThlZb8IH4eQjwO-67" target="bLzR6sThlZb8IH4eQjwO-52" edge="1">
          <mxGeometry relative="1" as="geometry">
            <Array as="points">
              <mxPoint x="853" y="550" />
              <mxPoint x="1003" y="550" />
            </Array>
          </mxGeometry>
        </mxCell>
        <mxCell id="bLzR6sThlZb8IH4eQjwO-67" value="Add price of the order to total(sum) and add&lt;br&gt;the quantity and order into dictionary(3)" style="rounded=0;whiteSpace=wrap;html=1;fillColor=#d5e8d4;strokeColor=#82b366;" parent="1" vertex="1">
          <mxGeometry x="792.9899999999998" y="589.06" width="120" height="60" as="geometry" />
        </mxCell>
        <mxCell id="fVE2EbDUCt8qXGBvNgdk-17" style="edgeStyle=orthogonalEdgeStyle;rounded=0;orthogonalLoop=1;jettySize=auto;html=1;" parent="1" source="bLzR6sThlZb8IH4eQjwO-71" target="fVE2EbDUCt8qXGBvNgdk-16" edge="1">
          <mxGeometry relative="1" as="geometry" />
        </mxCell>
        <mxCell id="bLzR6sThlZb8IH4eQjwO-71" value="User input:&lt;br&gt;quantity" style="shape=parallelogram;perimeter=parallelogramPerimeter;whiteSpace=wrap;html=1;fixedSize=1;fillColor=#dae8fc;strokeColor=#6c8ebf;" parent="1" vertex="1">
          <mxGeometry x="1100.99" y="589.06" width="140" height="60" as="geometry" />
        </mxCell>
        <mxCell id="bLzR6sThlZb8IH4eQjwO-72" style="edgeStyle=orthogonalEdgeStyle;rounded=0;orthogonalLoop=1;jettySize=auto;html=1;" parent="1" source="bLzR6sThlZb8IH4eQjwO-73" target="bLzR6sThlZb8IH4eQjwO-64" edge="1">
          <mxGeometry relative="1" as="geometry" />
        </mxCell>
        <mxCell id="bLzR6sThlZb8IH4eQjwO-73" value="Run menu function" style="rounded=0;whiteSpace=wrap;html=1;fillColor=#d5e8d4;strokeColor=#82b366;" parent="1" vertex="1">
          <mxGeometry x="1382.9899999999998" y="564.06" width="120" height="60" as="geometry" />
        </mxCell>
        <mxCell id="fVE2EbDUCt8qXGBvNgdk-22" style="edgeStyle=orthogonalEdgeStyle;rounded=0;orthogonalLoop=1;jettySize=auto;html=1;entryX=0.25;entryY=1;entryDx=0;entryDy=0;exitX=0.5;exitY=1;exitDx=0;exitDy=0;" parent="1" source="bLzR6sThlZb8IH4eQjwO-78" target="bLzR6sThlZb8IH4eQjwO-52" edge="1">
          <mxGeometry relative="1" as="geometry">
            <Array as="points">
              <mxPoint x="1013" y="775" />
              <mxPoint x="750" y="775" />
              <mxPoint x="750" y="540" />
              <mxPoint x="978" y="540" />
            </Array>
          </mxGeometry>
        </mxCell>
        <mxCell id="bLzR6sThlZb8IH4eQjwO-78" value="Please enter more th-&lt;br&gt;en 0." style="shape=parallelogram;perimeter=parallelogramPerimeter;whiteSpace=wrap;html=1;fixedSize=1;fillColor=#1ba1e2;strokeColor=#006EAF;fontColor=#ffffff;" parent="1" vertex="1">
          <mxGeometry x="943" y="695" width="140" height="60" as="geometry" />
        </mxCell>
        <mxCell id="bLzR6sThlZb8IH4eQjwO-80" style="edgeStyle=orthogonalEdgeStyle;rounded=0;orthogonalLoop=1;jettySize=auto;html=1;entryX=0.026;entryY=0.497;entryDx=0;entryDy=0;entryPerimeter=0;" parent="1" target="bLzR6sThlZb8IH4eQjwO-86" edge="1">
          <mxGeometry relative="1" as="geometry">
            <mxPoint x="1023.0033333333333" y="104.96" as="sourcePoint" />
          </mxGeometry>
        </mxCell>
        <mxCell id="bLzR6sThlZb8IH4eQjwO-81" value="User input choices:&lt;br&gt;1. Drinks&lt;br&gt;2. Lunch&lt;br&gt;3.Snacks&lt;br&gt;4.Frozen&lt;br&gt;5.Checkout" style="shape=parallelogram;perimeter=parallelogramPerimeter;whiteSpace=wrap;html=1;fixedSize=1;fillColor=#dae8fc;strokeColor=#6c8ebf;" parent="1" vertex="1">
          <mxGeometry x="920" y="76.25" width="140" height="103.75" as="geometry" />
        </mxCell>
        <mxCell id="bLzR6sThlZb8IH4eQjwO-129" value="False" style="edgeStyle=orthogonalEdgeStyle;rounded=0;orthogonalLoop=1;jettySize=auto;html=1;" parent="1" source="bLzR6sThlZb8IH4eQjwO-86" target="bLzR6sThlZb8IH4eQjwO-103" edge="1">
          <mxGeometry relative="1" as="geometry" />
        </mxCell>
        <mxCell id="bLzR6sThlZb8IH4eQjwO-143" value="True" style="edgeStyle=orthogonalEdgeStyle;rounded=0;orthogonalLoop=1;jettySize=auto;html=1;" parent="1" source="bLzR6sThlZb8IH4eQjwO-86" target="bLzR6sThlZb8IH4eQjwO-130" edge="1">
          <mxGeometry relative="1" as="geometry" />
        </mxCell>
        <mxCell id="bLzR6sThlZb8IH4eQjwO-86" value="If user input: 1 or 2 or 3 or 4&amp;nbsp; in BDSC_MENU" style="rhombus;whiteSpace=wrap;html=1;fillColor=#f8cecc;strokeColor=#b85450;" parent="1" vertex="1">
          <mxGeometry x="1092.99" y="60" width="110" height="90" as="geometry" />
        </mxCell>
        <mxCell id="bLzR6sThlZb8IH4eQjwO-101" style="edgeStyle=orthogonalEdgeStyle;rounded=0;orthogonalLoop=1;jettySize=auto;html=1;entryX=0.5;entryY=0;entryDx=0;entryDy=0;" parent="1" source="bLzR6sThlZb8IH4eQjwO-103" target="bLzR6sThlZb8IH4eQjwO-124" edge="1">
          <mxGeometry relative="1" as="geometry" />
        </mxCell>
        <mxCell id="bLzR6sThlZb8IH4eQjwO-102" value="True" style="edgeLabel;html=1;align=center;verticalAlign=middle;resizable=0;points=[];" parent="bLzR6sThlZb8IH4eQjwO-101" vertex="1" connectable="0">
          <mxGeometry x="-0.1519" y="-2" relative="1" as="geometry">
            <mxPoint as="offset" />
          </mxGeometry>
        </mxCell>
        <mxCell id="kZaygG5QQ7MTJpbCIgOS-17" style="edgeStyle=orthogonalEdgeStyle;rounded=0;orthogonalLoop=1;jettySize=auto;html=1;entryX=0;entryY=0.5;entryDx=0;entryDy=0;" parent="1" source="bLzR6sThlZb8IH4eQjwO-103" target="kZaygG5QQ7MTJpbCIgOS-6" edge="1">
          <mxGeometry relative="1" as="geometry" />
        </mxCell>
        <mxCell id="kZaygG5QQ7MTJpbCIgOS-18" value="False" style="edgeLabel;html=1;align=center;verticalAlign=middle;resizable=0;points=[];" parent="kZaygG5QQ7MTJpbCIgOS-17" vertex="1" connectable="0">
          <mxGeometry x="-0.2694" y="-2" relative="1" as="geometry">
            <mxPoint as="offset" />
          </mxGeometry>
        </mxCell>
        <mxCell id="bLzR6sThlZb8IH4eQjwO-103" value="If userinput =5&lt;br&gt;(CHECKOUT)" style="rhombus;whiteSpace=wrap;html=1;fillColor=#f8cecc;strokeColor=#b85450;" parent="1" vertex="1">
          <mxGeometry x="1255" y="60" width="110" height="90" as="geometry" />
        </mxCell>
        <mxCell id="bLzR6sThlZb8IH4eQjwO-104" style="edgeStyle=orthogonalEdgeStyle;rounded=0;orthogonalLoop=1;jettySize=auto;html=1;entryX=0.5;entryY=0;entryDx=0;entryDy=0;" parent="1" source="bLzR6sThlZb8IH4eQjwO-105" target="bLzR6sThlZb8IH4eQjwO-127" edge="1">
          <mxGeometry relative="1" as="geometry" />
        </mxCell>
        <mxCell id="bLzR6sThlZb8IH4eQjwO-105" value="Print order and&amp;nbsp;&lt;br&gt;total price" style="shape=parallelogram;perimeter=parallelogramPerimeter;whiteSpace=wrap;html=1;fixedSize=1;fillColor=#dae8fc;strokeColor=#6c8ebf;" parent="1" vertex="1">
          <mxGeometry x="1410" y="209.94" width="140" height="60" as="geometry" />
        </mxCell>
        <mxCell id="bLzR6sThlZb8IH4eQjwO-106" value="END" style="rounded=1;whiteSpace=wrap;html=1;fillColor=#fff2cc;strokeColor=#d6b656;" parent="1" vertex="1">
          <mxGeometry x="1420" y="385.0199999999999" width="120" height="27.72" as="geometry" />
        </mxCell>
        <mxCell id="bLzR6sThlZb8IH4eQjwO-115" style="edgeStyle=orthogonalEdgeStyle;rounded=0;orthogonalLoop=1;jettySize=auto;html=1;" parent="1" source="bLzR6sThlZb8IH4eQjwO-116" target="bLzR6sThlZb8IH4eQjwO-81" edge="1">
          <mxGeometry relative="1" as="geometry" />
        </mxCell>
        <mxCell id="bLzR6sThlZb8IH4eQjwO-116" value="Start&lt;br&gt;(Menu function)" style="rounded=1;whiteSpace=wrap;html=1;fillColor=#fff2cc;strokeColor=#d6b656;" parent="1" vertex="1">
          <mxGeometry x="765" y="108.12999999999998" width="120" height="40" as="geometry" />
        </mxCell>
        <mxCell id="bLzR6sThlZb8IH4eQjwO-148" style="edgeStyle=orthogonalEdgeStyle;rounded=0;orthogonalLoop=1;jettySize=auto;html=1;entryX=1;entryY=0.5;entryDx=0;entryDy=0;" parent="1" source="bLzR6sThlZb8IH4eQjwO-117" target="bLzR6sThlZb8IH4eQjwO-146" edge="1">
          <mxGeometry relative="1" as="geometry" />
        </mxCell>
        <mxCell id="bLzR6sThlZb8IH4eQjwO-117" value="Store list of 1 or 2 or 3 or 4 into&amp;nbsp;&lt;br&gt;calculation 1,2&lt;br&gt;dictionary&lt;br&gt;Run math function" style="rounded=0;whiteSpace=wrap;html=1;fillColor=#d5e8d4;strokeColor=#82b366;" parent="1" vertex="1">
          <mxGeometry x="920" y="209.94" width="120" height="70.06" as="geometry" />
        </mxCell>
        <mxCell id="bLzR6sThlZb8IH4eQjwO-121" style="edgeStyle=orthogonalEdgeStyle;rounded=0;orthogonalLoop=1;jettySize=auto;html=1;" parent="1" source="bLzR6sThlZb8IH4eQjwO-124" target="bLzR6sThlZb8IH4eQjwO-125" edge="1">
          <mxGeometry relative="1" as="geometry" />
        </mxCell>
        <mxCell id="bLzR6sThlZb8IH4eQjwO-122" value="True" style="edgeLabel;html=1;align=center;verticalAlign=middle;resizable=0;points=[];" parent="bLzR6sThlZb8IH4eQjwO-121" vertex="1" connectable="0">
          <mxGeometry x="0.0063" y="2" relative="1" as="geometry">
            <mxPoint as="offset" />
          </mxGeometry>
        </mxCell>
        <mxCell id="bLzR6sThlZb8IH4eQjwO-123" value="False" style="edgeStyle=orthogonalEdgeStyle;rounded=0;orthogonalLoop=1;jettySize=auto;html=1;entryX=0;entryY=0.5;entryDx=0;entryDy=0;" parent="1" source="bLzR6sThlZb8IH4eQjwO-124" target="bLzR6sThlZb8IH4eQjwO-105" edge="1">
          <mxGeometry relative="1" as="geometry">
            <Array as="points">
              <mxPoint x="1380" y="240" />
              <mxPoint x="1380" y="240" />
            </Array>
          </mxGeometry>
        </mxCell>
        <mxCell id="bLzR6sThlZb8IH4eQjwO-124" value="If order and sum is empty" style="rhombus;whiteSpace=wrap;html=1;fillColor=#f8cecc;strokeColor=#b85450;" parent="1" vertex="1">
          <mxGeometry x="1258.99" y="194.85999999999999" width="102.01" height="90.16" as="geometry" />
        </mxCell>
        <mxCell id="bLzR6sThlZb8IH4eQjwO-125" value="Please order &lt;br&gt;something" style="shape=parallelogram;perimeter=parallelogramPerimeter;whiteSpace=wrap;html=1;fixedSize=1;fillColor=#1ba1e2;strokeColor=#006EAF;fontColor=#ffffff;" parent="1" vertex="1">
          <mxGeometry x="1240" y="332.71999999999997" width="140" height="60" as="geometry" />
        </mxCell>
        <mxCell id="bLzR6sThlZb8IH4eQjwO-126" style="edgeStyle=orthogonalEdgeStyle;rounded=0;orthogonalLoop=1;jettySize=auto;html=1;" parent="1" source="bLzR6sThlZb8IH4eQjwO-127" target="bLzR6sThlZb8IH4eQjwO-106" edge="1">
          <mxGeometry relative="1" as="geometry" />
        </mxCell>
        <mxCell id="bLzR6sThlZb8IH4eQjwO-127" value="Run clean function&lt;br&gt;go to age function" style="rounded=0;whiteSpace=wrap;html=1;fillColor=#d5e8d4;strokeColor=#82b366;" parent="1" vertex="1">
          <mxGeometry x="1420" y="300.0199999999999" width="120" height="60" as="geometry" />
        </mxCell>
        <mxCell id="bLzR6sThlZb8IH4eQjwO-145" style="edgeStyle=orthogonalEdgeStyle;rounded=0;orthogonalLoop=1;jettySize=auto;html=1;" parent="1" source="bLzR6sThlZb8IH4eQjwO-130" target="bLzR6sThlZb8IH4eQjwO-117" edge="1">
          <mxGeometry relative="1" as="geometry" />
        </mxCell>
        <mxCell id="bLzR6sThlZb8IH4eQjwO-130" value="Print: list of&amp;nbsp; 1 or 2 or 3 or4 from &lt;br&gt;BDSC_MENU" style="shape=parallelogram;perimeter=parallelogramPerimeter;whiteSpace=wrap;html=1;fixedSize=1;fillColor=#1ba1e2;strokeColor=#006EAF;fontColor=#ffffff;" parent="1" vertex="1">
          <mxGeometry x="1077.99" y="209.94" width="140" height="60" as="geometry" />
        </mxCell>
        <mxCell id="fVE2EbDUCt8qXGBvNgdk-1" style="edgeStyle=orthogonalEdgeStyle;rounded=0;orthogonalLoop=1;jettySize=auto;html=1;" parent="1" source="bLzR6sThlZb8IH4eQjwO-132" target="bLzR6sThlZb8IH4eQjwO-13" edge="1">
          <mxGeometry relative="1" as="geometry" />
        </mxCell>
        <mxCell id="bLzR6sThlZb8IH4eQjwO-132" value="Start&lt;br&gt;(Login function)" style="rounded=1;whiteSpace=wrap;html=1;fillColor=#fff2cc;strokeColor=#d6b656;" parent="1" vertex="1">
          <mxGeometry x="-126.03" y="382.78" width="120" height="37.5" as="geometry" />
        </mxCell>
        <mxCell id="bLzR6sThlZb8IH4eQjwO-141" value="Erase data from txt" style="rounded=0;whiteSpace=wrap;html=1;fillColor=#d5e8d4;strokeColor=#82b366;" parent="1" vertex="1">
          <mxGeometry x="387.97" y="756.53" width="120" height="60" as="geometry" />
        </mxCell>
        <mxCell id="bLzR6sThlZb8IH4eQjwO-146" value="END" style="rounded=1;whiteSpace=wrap;html=1;fillColor=#fff2cc;strokeColor=#d6b656;" parent="1" vertex="1">
          <mxGeometry x="765" y="231.10999999999993" width="120" height="27.72" as="geometry" />
        </mxCell>
        <mxCell id="fVE2EbDUCt8qXGBvNgdk-19" value="True" style="edgeStyle=orthogonalEdgeStyle;rounded=0;orthogonalLoop=1;jettySize=auto;html=1;" parent="1" source="fVE2EbDUCt8qXGBvNgdk-16" target="bLzR6sThlZb8IH4eQjwO-67" edge="1">
          <mxGeometry relative="1" as="geometry" />
        </mxCell>
        <mxCell id="fVE2EbDUCt8qXGBvNgdk-20" value="False" style="edgeStyle=orthogonalEdgeStyle;rounded=0;orthogonalLoop=1;jettySize=auto;html=1;entryX=0.5;entryY=0;entryDx=0;entryDy=0;" parent="1" source="fVE2EbDUCt8qXGBvNgdk-16" target="bLzR6sThlZb8IH4eQjwO-78" edge="1">
          <mxGeometry relative="1" as="geometry" />
        </mxCell>
        <mxCell id="fVE2EbDUCt8qXGBvNgdk-16" value="If user input&amp;gt;=0" style="rhombus;whiteSpace=wrap;html=1;fillColor=#f8cecc;strokeColor=#b85450;" parent="1" vertex="1">
          <mxGeometry x="965.5" y="581.56" width="95" height="75" as="geometry" />
        </mxCell>
        <mxCell id="kZaygG5QQ7MTJpbCIgOS-2" style="edgeStyle=orthogonalEdgeStyle;rounded=0;orthogonalLoop=1;jettySize=auto;html=1;" parent="1" source="kZaygG5QQ7MTJpbCIgOS-1" edge="1">
          <mxGeometry relative="1" as="geometry">
            <mxPoint x="930" y="-30" as="targetPoint" />
          </mxGeometry>
        </mxCell>
        <mxCell id="kZaygG5QQ7MTJpbCIgOS-1" value="Start&lt;br&gt;(Clear function)" style="rounded=1;whiteSpace=wrap;html=1;fillColor=#fff2cc;strokeColor=#d6b656;" parent="1" vertex="1">
          <mxGeometry x="760" y="-50.000000000000014" width="120" height="40" as="geometry" />
        </mxCell>
        <mxCell id="kZaygG5QQ7MTJpbCIgOS-5" style="edgeStyle=orthogonalEdgeStyle;rounded=0;orthogonalLoop=1;jettySize=auto;html=1;" parent="1" source="kZaygG5QQ7MTJpbCIgOS-3" target="kZaygG5QQ7MTJpbCIgOS-4" edge="1">
          <mxGeometry relative="1" as="geometry" />
        </mxCell>
        <mxCell id="kZaygG5QQ7MTJpbCIgOS-3" value="Clear order, price dictionaries.&lt;br&gt;Activate login function" style="rounded=0;whiteSpace=wrap;html=1;fillColor=#d5e8d4;strokeColor=#82b366;" parent="1" vertex="1">
          <mxGeometry x="930" y="-60.00000000000006" width="120" height="60" as="geometry" />
        </mxCell>
        <mxCell id="kZaygG5QQ7MTJpbCIgOS-4" value="END" style="rounded=1;whiteSpace=wrap;html=1;fillColor=#fff2cc;strokeColor=#d6b656;" parent="1" vertex="1">
          <mxGeometry x="1077.99" y="-43.86000000000007" width="120" height="27.72" as="geometry" />
        </mxCell>
        <mxCell id="kZaygG5QQ7MTJpbCIgOS-9" style="edgeStyle=orthogonalEdgeStyle;rounded=0;orthogonalLoop=1;jettySize=auto;html=1;entryX=0.5;entryY=0;entryDx=0;entryDy=0;" parent="1" source="kZaygG5QQ7MTJpbCIgOS-6" target="bLzR6sThlZb8IH4eQjwO-81" edge="1">
          <mxGeometry relative="1" as="geometry">
            <Array as="points">
              <mxPoint x="1448" y="56" />
              <mxPoint x="990" y="56" />
            </Array>
          </mxGeometry>
        </mxCell>
        <mxCell id="kZaygG5QQ7MTJpbCIgOS-10" value="False" style="edgeLabel;html=1;align=center;verticalAlign=middle;resizable=0;points=[];" parent="kZaygG5QQ7MTJpbCIgOS-9" vertex="1" connectable="0">
          <mxGeometry x="-0.157" y="1" relative="1" as="geometry">
            <mxPoint as="offset" />
          </mxGeometry>
        </mxCell>
        <mxCell id="kZaygG5QQ7MTJpbCIgOS-16" style="edgeStyle=orthogonalEdgeStyle;rounded=0;orthogonalLoop=1;jettySize=auto;html=1;entryX=0;entryY=0.5;entryDx=0;entryDy=0;" parent="1" source="kZaygG5QQ7MTJpbCIgOS-6" target="kZaygG5QQ7MTJpbCIgOS-14" edge="1">
          <mxGeometry relative="1" as="geometry" />
        </mxCell>
        <mxCell id="kZaygG5QQ7MTJpbCIgOS-19" value="True" style="edgeLabel;html=1;align=center;verticalAlign=middle;resizable=0;points=[];" parent="kZaygG5QQ7MTJpbCIgOS-16" vertex="1" connectable="0">
          <mxGeometry x="-0.2455" y="2" relative="1" as="geometry">
            <mxPoint as="offset" />
          </mxGeometry>
        </mxCell>
        <mxCell id="kZaygG5QQ7MTJpbCIgOS-6" value="If userinput =6&lt;br&gt;(Cancel order)" style="rhombus;whiteSpace=wrap;html=1;fillColor=#f8cecc;strokeColor=#b85450;" parent="1" vertex="1">
          <mxGeometry x="1410" y="60" width="110" height="90" as="geometry" />
        </mxCell>
        <mxCell id="kZaygG5QQ7MTJpbCIgOS-21" style="edgeStyle=orthogonalEdgeStyle;rounded=0;orthogonalLoop=1;jettySize=auto;html=1;" parent="1" source="kZaygG5QQ7MTJpbCIgOS-14" target="kZaygG5QQ7MTJpbCIgOS-20" edge="1">
          <mxGeometry relative="1" as="geometry" />
        </mxCell>
        <mxCell id="kZaygG5QQ7MTJpbCIgOS-14" value="Run clear function" style="rounded=0;whiteSpace=wrap;html=1;fillColor=#d5e8d4;strokeColor=#82b366;" parent="1" vertex="1">
          <mxGeometry x="1560" y="74.99999999999991" width="120" height="60" as="geometry" />
        </mxCell>
        <mxCell id="kZaygG5QQ7MTJpbCIgOS-20" value="END" style="rounded=1;whiteSpace=wrap;html=1;fillColor=#fff2cc;strokeColor=#d6b656;" parent="1" vertex="1">
          <mxGeometry x="1560" y="173.74999999999994" width="120" height="27.72" as="geometry" />
        </mxCell>
      </root>
    </mxGraphModel>
  </diagram>
</mxfile>
